<!-- Generator: Adobe Illustrator 16.0.0, SVG Export Plug-In . SVG Version: 6.00 Build 0)  -->
<svg xmlns:rdf="http://www.w3.org/1999/02/22-rdf-syntax-ns#" xmlns="http://www.w3.org/2000/svg" height="342" width="810" viewBox="0 0 675 285" version="1.1" y="0px" x="0px" xmlns:cc="http://creativecommons.org/ns#" xmlns:dc="http://purl.org/dc/elements/1.1/"><metadata><rdf:RDF><cc:Work rdf:about=""><dc:format>image/svg+xml</dc:format><dc:type rdf:resource="http://purl.org/dc/dcmitype/StillImage"/><dc:title/></cc:Work></rdf:RDF></metadata><path d="m305,63.8c2.53-3.66,2.51-2.6,11.6-2.87l351-0.531c4.16-0.076,3.6,2.04,2.73,4.79l-56,180c-1.32,6.77-6.22,9.48-12.3,9.48l-425-0.103z" fill-rule="evenodd" clip-rule="evenodd" fill="#04693f"/><path d="m671,57.6c-10,0-19.3-0.003-28.7,0.001-109,0.035-217,0.079-326,0.049-1.92-0.001-5.42,1.28-5.49-1.32-0.082-3.13,3.55-2.1,5.65-2.1,116-0.036,232-0.016,347,0.02,2.49,0.001,5.39-0.706,7,3.35z" fill-rule="evenodd" clip-rule="evenodd" fill="#15592e"/><path d="m609,261c-1.35,1.17-2.54,0.784-3.66,0.784-142,0.031-284,0.052-425,0.065-1.57,0-4.23,0.511-3.97-1.54,0.272-2.16,3.07-1.96,5.09-1.96,27.7,0.014,55.3,0.01,83,0.017,112,0.026,224,0.058,335,0.07,3.3,0,6.6-0.191,9.54,2.56z" fill-rule="evenodd" clip-rule="evenodd" fill="#15592e"/><path d="m360,116c2.11-7.56,4.3-15.1,9.96-20.9,10.2-10.6,31.2-13.7,44-6.55,5.67,3.15,7.41,8.67,9.01,14.3-0.163,3.31,0.025,6.69-0.548,9.94-3.29,18.7-6.34,37.4-10.3,55.9-3.34,15.6-13.4,24.2-29.3,26.6-10.8,1.6-20.8-0.295-29.4-7.54-0.599-1.02-0.906-1.69-1.17-2.71-2.17-5.82-1.89-12-1.75-18.1,3.78-16.9,6.74-35.6,9.44-50.9zm23.3,55.4c4.67-0.223,6.07-3.58,6.76-7.34,2.41-13.1,4.71-26.1,7.05-39.2,0.646-3.05,1.5-6.07,1.9-9.15,0.605-4.7-1.39-6.88-6.04-7.06-5.98-0.233-8.82,2.76-10.3,10.9-2.65,14.5-5.27,29-7.91,43.6-1.25,6.87,1.31,9.35,8.56,8.28z" fill-rule="evenodd" clip-rule="evenodd" fill="#bfcb75"/><path d="m573,195c-0.053-3.89-0.105-7.78-0.157-11.7,1.13-11.5,1.13-11.5-10.2-11.4-1.16,0.011-2.33,0.078-3.49,0.005-2.5-0.157-3.97,0.848-4.77,3.33-1.84,5.69-3.97,11.3-5.84,17-0.827,2.52-2.09,3.82-4.97,3.72l-14.5,0.045c-2.92,0.071-3.86-0.467-2.56-3.7l39.3-104c1.06-2.9,2.56-4.26,5.79-4.15,5.98,0.19,12,0.024,18-0.016,1.52-0.011,3,0.006,4.21,1.12l0.731,105c0.018,2.23,0.664,4.99-3.15,4.8-6.14-0.299-12.3,0.683-18.4-0.495zm-0.138-67.4c-0.399-0.047-0.8-0.094-1.2-0.141-2.45,6.51-4.9,13-7.35,19.5-0.451,1.2-1.6,2.87-0.324,3.62,2.18,1.28,4.83,0.618,7.27,0.399,1.48-0.134,1.59-1.49,1.59-2.68,0.012-6.91,0.006-13.8,0.006-20.7z" fill-rule="evenodd" clip-rule="evenodd" fill="#bfcb75"/><path d="m444,99.5c5.71-15.5,5.45-15.6,21.7-15.6,2.33-0.01,4.66,0.072,6.98-0.049,2.24-0.115,3.45,0.779,3.61,3.04-0.052,1.99-0.166,3.98-0.146,5.97,0.331,32.8,0.666,65.5,1.05,98.3,0.025,2.19,0.071,4.07-2.91,3.96-6.3-0.236-12.6,0.618-18.9-0.397,0,0,0.048,0.084,0.047,0.084,0.082-3.33,0.226-6.65,0.234-9.98,0.039-14,0.028-13.9-14-13.4-2.93,0.098-4.1,1.27-4.92,3.77-1.82,5.54-3.9,11-5.7,16.5-0.84,2.58-2.23,3.79-5.05,3.7-4.49-0.146-9-0.18-13.5,0.087-4.07,0.242-4.31-1.22-3.04-4.61zm11.3,27.8c-0.365-0.066-0.731-0.133-1.1-0.199-2.49,6.56-5.02,13.1-7.42,19.7-0.462,1.27-2.22,3.64,0.684,3.71,2.56,0.059,7.1,2.22,7.59-1.78,0.865-7.05,0.242-14.3,0.242-21.4z" fill-rule="evenodd" clip-rule="evenodd" fill="#bfcb75"/><path d="m285,188c-4.1-7.15-4.58-14.8-3.12-22.7l9.3-50.5c5.69-28,28-33.4,48.8-28.2,8.25,2.05,12,8.36,13.5,16.3-0.111,3.32-0.007,6.66-0.371,9.96-1.26,11.4-1.32,11.4-12.5,11.5-1.5,0.021-2.99,0.019-4.49,0.019-7.62,0.004-7.62,0.003-6.73-7.58,0.757-6.44-2.62-9.45-8.83-7.9-3.66,0.915-5.68,3.44-6.34,6.95-3.02,16-6.02,32-8.83,48.1-0.927,5.3,0.687,7.5,4.91,8.01,5,0.605,9.52-1.99,9.71-6.31,0.128-3.05,1.32-5.68,1.81-8.55,0.311-0.125,0.513-0.347,0.608-0.667,0.253,0.079,0.404-0.014,0.454-0.276,1.81,0.012,3.62-0.08,5.42,0.054,5.66,0.422,11.4-1.13,17,0.923-0.771,3.74-1.39,7.52-2.34,11.2-6.76,26.5-36.6,36.6-57.9,19.8z" fill-rule="evenodd" clip-rule="evenodd" fill="#bfcb75"/><path d="m498,88.2c0.405-3.39,2.03-4.63,5.27-4.28,6.22,0.662,12.6-1.39,18.7,1.08-0.389,1.08-1,2.14-1.13,3.26l-14.1,78c-0.747,3.82,0.196,5.21,4.12,4.9,4.3-0.336,8.63-0.308,12.9-0.438,0.319-0.011,0.639-0.021,0.959-0.03,1.36,0.156,2.71,0.313,4.07,0.468-0.069,0.332,0.016,0.619,0.254,0.857-1.12,6.03-2.36,12-3.3,18.1-0.501,3.22-1.5,4.82-5.28,4.75l-36.8,0.079c-4.12,0.08-5.43-0.649-4.44-5.22z" fill-rule="evenodd" clip-rule="evenodd" fill="#bfcb75"><path fill="#08693E" clip-rule="evenodd" d="M751,449c0.319-0.011,0.64-0.021,0.959-0.03h-1z" fill-rule="evenodd"/></path><path d="m485,159c-1.8,10.3-3.31,20.7-5.53,30.9-0.991,4.57,0.321,5.3,4.44,5.22,12.3-0.24,24.6-0.312,36.8-0.079,3.78,0.071,4.78-1.52,5.28-4.75,0.94-6.06,2.18-12.1,3.3-18.1,3.74,2.31,3.39-2.95,5.79-3.13-2.75,7.65-5.31,15.4-8.34,22.9-1.3,3.23-0.367,3.77,2.56,3.7,4.82-0.118,9.64-0.227,14.5-0.045,2.88,0.107,4.14-1.2,4.97-3.72,1.87-5.68,4-11.3,5.84-17,0.802-2.48,2.27-3.49,4.77-3.33,1.16,0.073,2.33,0.006,3.49-0.005,11.3-0.1,11.3-0.1,10.2,11.4-0.832-0.006-1.66-0.015-2.5-0.019-9.65-0.05-9.77-0.097-13.4,8.93-1.4,3.51-2.83,7.13-3.72,10.7-0.911,3.69-2.56,4.39-5.81,4.37l-78.9,0.075c-4.69,0.172-7.95-0.75-9.71-5.5-0.848-2.29-2.72-4.19-2.82-6.82,6.28,1.02,12.6,0.16,18.9,0.396,2.98,0.111,2.94-1.76,2.91-3.96-0.384-32.8-0.719-65.5-1.05-98.3-0.02-1.99,0.095-3.98,0.146-5.97,3.42,1.63,4.74,1.28,4.92,4.5l1.13,63.6c0.677,3.16,0.495,3.63,1.83,3.85z" fill-rule="evenodd" clip-rule="evenodd" fill="#15592e"/><path d="m428,140c0.29,3.7-2.05,6.54-3.2,9.76-4.91,13.7-9.78,27.4-14.9,41-1.26,3.4-1.03,4.85,3.04,4.61l13.5-0.087c2.82,0.093,4.21-1.11,5.05-3.7,1.8-5.54,3.89-11,5.7-16.5,0.821-2.5,1.99-3.67,4.92-3.77,14-0.47,14.1-0.58,14,13.4-0.009,3.33-0.152,6.65-0.234,9.98-3.38-1.18-0.709-3.69-1.16-5.52-0.577-2.34,1.11-5.56-3.01-6.3-5.7-1.01-8.76,0.294-10.1,4.41-1.83,5.5-3.89,10.9-5.61,16.4-0.737,2.38-2.11,3.14-4.37,3.1l-8.48,0.043c-5.76,0.521-10.7,0.019-12.9-6.62-1.22-3.66-3.37-1.6-5.29-0.253-11.7,8.22-24.4,9.27-37.5,4.17-5.15-2-9.51-5.45-10.9-11.4-0.453-1.98-2.94-2.84-2.77-5.13,8.59,7.24,18.6,9.14,29.4,7.54,15.8-2.34,25.9-10.9,29.3-26.6,3.96-18.5,7.02-37.2,10.3-55.9,0.573-3.24,0.385-6.62,0.548-9.94,4.68,5.32,5.53,11.7,4.73,18.4-0.608,5.07-1.56,10.1-2.52,15.1-0.427,2.22-0.021,3.57,2.44,3.75z" fill-rule="evenodd" clip-rule="evenodd" fill="#15592e"/><path d="m321,157c-0.49,2.86-1.68,5.5-1.81,8.55-0.183,4.32-4.7,6.92-9.71,6.31-4.23-0.512-5.84-2.71-4.91-8.01,2.8-16,5.81-32.1,8.83-48.1,0.662-3.51,2.68-6.03,6.34-6.95,6.22-1.56,9.59,1.46,8.83,7.9-0.892,7.59-0.892,7.59,6.73,7.58,1.5,0,2.99,0.002,4.49-0.019,11.2-0.148,11.3-0.144,12.5-11.5,0.364-3.29,0.26-6.64,0.371-9.96,3.25,0.259,3,3.06,3.47,5.1,0.385,1.71,0.216,3.57,0.126,5.36-0.139,2.77,1.18,3.46,3.62,2.77-2.42,13.6-4.24,27.3-7.62,40.7,0.33-5.22-0.691-10.4,1.59-15.7,1.94-4.44-0.194-6.38-5.06-5.59-13.6,2.22-15.6,1.2-21.6-10.8-2.22-4.44-4.43-4.61-7.5-0.625-0.851,1.1-0.991,2.41-1.44,3.64-2.06,5.69-1.41,11.8-2.96,17.5-1.73,6.4-3.24,12.8-4.2,19.4-0.226,1.56-1.24,3.44,1.25,4.06,1.99,0.492,3.54-0.237,4.56-2.12,0.982-1.8,1.43-3.69,1.42-5.73-0.01-1.91,0.084-3.79,2.71-3.88z" fill-rule="evenodd" clip-rule="evenodd" fill="#15592e"/><path d="m285,188c21.3,16.9,51.2,6.68,57.9-19.8,0.945-3.7,1.56-7.48,2.34-11.2,2.31,0.889,2.65,3.2,3.47,5.07,0.736,1.68-0.089,4.11,2.5,4.85-0.144,6.07-0.459,12.1,1.71,18-5.54-3.87-5.46-3.92-8.2,3.2-4.83,12.6-17.3,18.8-28.4,18.8-7.74,0.005-15.8,1.28-22.4-4.14-4.62-3.78-8.26-8.42-8.88-14.7z" fill-rule="evenodd" clip-rule="evenodd" fill="#15592e"/><path d="m573,195c6.11,1.18,12.3,0.196,18.4,0.494,3.81,0.186,3.17-2.58,3.15-4.8-0.138-17.3-0.352-34.6-0.475-51.9-0.125-17.8-0.174-35.6-0.256-53.4,1.49,0.291,2.6,1.3,2.6,2.67-0.009,5.17,2.58,9.78,2.52,15.1-0.269,24.1,0.035,48.2-0.171,72.4-0.08,9.33,0.882,18.6,1.44,27.8,0.177,2.95-0.486,4.01-3.3,3.97-3.66-0.046-7.32,0.053-11-0.022-9.35-0.193-7.67,1.69-11.3-8.16-0.508-1.39-1.12-2.74-1.69-4.12z" fill-rule="evenodd" clip-rule="evenodd" fill="#15592e"/><path d="m529,171c-1.36-0.155-2.71-0.312-4.07-0.468-0.319,0.01-0.64,0.02-0.959,0.03-4.32,0.13-8.64,0.102-12.9,0.438-3.93,0.307-4.87-1.08-4.12-4.9,2.9-14.8,5.58-29.7,8.28-44.6,2.02-11.1,4.49-22.1,5.79-33.4,0.129-1.12,0.743-2.18,1.13-3.26,4.79,4,3.95,9.77,3.24,14.5-2.92,19.7-6.59,39.2-9.99,58.8-0.113,0.653-0.24,1.31-0.304,1.97-0.782,8.04-0.313,8.48,7.62,8.63,2.25,0.039,5.21-1.3,6.32,2.23z" fill-rule="evenodd" clip-rule="evenodd" fill="#15592e"/><path d="m351,167c-2.58-0.736-1.76-3.17-2.5-4.85-0.819-1.87-1.16-4.18-3.47-5.07-5.57-2.05-11.3-0.5-17-0.922-1.8-0.134-3.61-0.042-5.41-0.057-0.137,0.112-0.292,0.206-0.459,0.279-0.095,0.32-0.297,0.542-0.608,0.667-2.62,0.093-2.72,1.97-2.7,3.88,0.014,2.04-0.434,3.93-1.42,5.73-1.02,1.88-2.57,2.61-4.56,2.12-2.5-0.619-1.48-2.5-1.25-4.06,0.952-6.56,2.47-13,4.2-19.4,1.55-5.74,0.904-11.9,2.96-17.5,0.445-1.23,0.585-2.54,1.44-3.64,3.08-3.98,5.29-3.82,7.5,0.625,5.99,12,8.03,13,21.6,10.8,4.87-0.794,7,1.15,5.06,5.59-2.28,5.22-1.26,10.4-1.59,15.7-0.038,3.49-0.832,6.85-1.83,10.2z" fill-rule="evenodd" clip-rule="evenodd" fill="#08693e"/><path d="m384,171c-7.26,1.07-9.81-1.41-8.56-8.28,2.64-14.5,5.27-29,7.91-43.6,1.49-8.16,4.33-11.2,10.3-10.9,4.65,0.182,6.64,2.36,6.04,7.06-0.397,3.08-1.25,6.1-1.9,9.15-0.967-1.34-0.546-4-3.23-3.71-2.06,0.218-3.85,1.22-4.81,3.12-0.496,0.987-0.486,2.23-0.705,3.36-1.42,7.29-1.93,14.9-4.54,21.8-2.41,6.3-0.738,12.9-3.15,19-0.704,1.78,1.29,2.39,2.62,3.02z" fill-rule="evenodd" clip-rule="evenodd" fill="#15592e"/><path d="m384,171c-1.34-0.63-3.33-1.24-2.62-3.02,2.41-6.1,0.746-12.7,3.15-19,2.61-6.84,3.12-14.5,4.54-21.8,0.219-1.13,0.209-2.37,0.705-3.36,0.953-1.9,2.75-2.9,4.81-3.12,2.68-0.284,2.26,2.37,3.23,3.71-2.34,13.1-4.63,26.2-7.05,39.2-0.694,3.76-2.09,7.12-6.76,7.34z" fill-rule="evenodd" clip-rule="evenodd" fill="#08693e"/><path d="m573,127c0,6.91,0.006,13.8-0.006,20.7-0.002,1.19-0.106,2.55-1.59,2.68-2.44,0.219-5.1,0.886-7.27-0.399-1.28-0.755-0.127-2.42,0.324-3.62,2.44-6.52,4.9-13,7.35-19.5,0.399,0.046,0.799,0.093,1.2,0.14z" fill-rule="evenodd" clip-rule="evenodd" fill="#15592e"/><path d="m456,127c0,7.15,0.623,14.4-0.242,21.4-0.49,4-5.03,1.84-7.59,1.78-2.91-0.065-1.15-2.44-0.684-3.71,2.4-6.6,4.94-13.1,7.42-19.7,0.365,0.066,0.731,0.133,1.1,0.199z" fill-rule="evenodd" clip-rule="evenodd" fill="#15592e"/><path fill="#005538" d="M0.815,46.9,159,285,316,49.9z"/><path fill="#bfcb75" d="M13.5,51.9,159,268,306,55.9z"/><path d="m267,26.3c-6.73,0.439-12.1-1.4-17.8,0.096,5.65,4,13.9,2.42,18.9,8.7-3.96,2.06-8.79-0.213-13.1,3.32,8.39,2.64,16.9,3.81,23.6,10.7-4.91,0.781-8.79,0.042-12.7-0.242-1.49-0.108-3-0.069-4.48,0.066-0.973,0.089-2.1,0.33-2.46,1.4-0.51,1.54,0.87,1.97,1.83,2.52,4.1,2.37,8.74,3.18,13.2,4.44,2.68,0.759,5.43,1.29,7.98,3.03-1.53,2.33-3.54,1.82-5.44,1.65-3.98-0.354-7.96-0.773-11.9-1.05-1.3-0.089-2.92-0.076-3.35,1.5-0.452,1.66,1.09,2.33,2.26,2.83,4.44,1.9,8.96,3.62,13.4,5.53,1.44,0.621,2.93,1.4,3.9,3.4-4.38,1.3-8.55,0.496-12.6,1.05-1.4,0.193-3.38-0.397-3.77,1.56-0.342,1.7,1.29,2.7,2.54,3.38,3.62,1.97,7.35,3.72,11.7,5.86-3.57,2.08-6.97,1.19-10,2.04-2.5,0.697-5.83,0.198-7.01,2.98-1.3,3.08,1.92,4.53,3.5,6.52,0.3,0.379,0.557,0.791,1.15,1.64-2.84,1.73-5.61,1.52-8.46,0.623-1.21-0.38-2.34-0.251-3.19,0.741-1.07,1.26,0.176,2.08,0.67,3.06,1.3,2.59,4.2,4.18,4.83,7.41-2.88,0.635-4.72-1.97-7.58-1.7-0.192,3.27,1.87,6.48,1.1,10.2-7.3-6.6-7.28-6.59-9.75,3.25-1.91,7.62-6.55,13.8-11,20-8.29,11.5-16.2,23.3-25.6,33.8-8.43,9.37-18.8,15.7-31,19.2-3.69,1.06-4.78,0.131-4.72-3.54,0.175-11.8-1.06-23.5,2.5-35.2,1.99-6.51,1.8-13.5,0.257-20.3-1.68-7.4-6.8-11-15.6-11-8.71-0.029-13.9,3.64-15.5,11.1-2.04,9.72-0.264,19.2,2,28.6,2.27,9.49,0.792,19.2,0.948,28.8,0.051,3.17-2.43,1.35-3.68,1.01-11.9-3.2-22.2-9.54-30.1-18.8-11.9-13.9-22.7-28.7-32.5-44.2-2.42-3.84-3.99-8.02-4.75-12.5-0.323-1.92-0.643-4.41-2.7-5.02-2.32-0.687-3.22,1.8-4.47,3.28-0.384,0.458-0.811,0.88-1.54,1.66-1.43-3.77,0.698-6.85,0.678-10.6-2.6,0.791-4.98,1.52-7.76,2.36,0.306-2.87,2.26-4.09,3.44-5.76,1.05-1.49,2.77-2.97,1.98-4.83-0.867-2.05-3.15-1.23-4.92-1.34-2.09-0.124-4.23,0.762-6.35-0.181,0.007-1.66,1.36-2.27,2.2-3.19,1.33-1.48,3.2-2.83,2.44-5.08-0.744-2.22-3.11-2.23-5-2.74-3.44-0.927-7.17-0.516-10.9-2.36,3.02-2.81,6.77-3.71,9.92-5.61,1.41-0.853,3.27-1.76,2.91-3.65-0.427-2.22-2.68-1.5-4.2-1.62-3.15-0.251-6.32-0.242-9.48-0.385-0.801-0.036-1.76-0.028-2.02-1.06-0.257-1.04,0.671-1.42,1.33-1.84,4.25-2.74,9.22-3.8,13.7-5.9,1.7-0.791,4.56-1.06,3.88-3.66-0.554-2.13-3.13-1.4-4.84-1.32-4.32,0.191-8.63,0.652-13,0.932-0.962,0.063-2.18,0.008-2.23-1.35-0.04-0.945,0.89-1.36,1.68-1.59,4.47-1.31,9.01-2.42,13.4-3.9,2.72-0.906,7.39-1.5,6.9-4.42-0.537-3.22-4.99-1.72-7.78-1.68-3.46,0.047-6.92,0.406-11.8,0.724,7.09-7.71,15.7-8.96,24.6-11.5-3.92-2.23-7.24-2.3-10.7-1.84-1.27,0.166-3.02,0.552-3.46-1.08-0.455-1.69,1.48-1.93,2.51-2.55,3.75-2.29,8.01-3.19,12.2-4.18,1.64-0.384,3.66-0.145,4.87-2.74-6.12-0.876-11.8,0.625-18.7,0.674,8.75-6.09,17.5-6.58,28-5.78-3.77-2.86-6.67-3.7-9.67-4.33-0.97-0.203-2.21-0.186-2.55-1.25-0.435-1.35,0.779-2.09,1.65-2.8,3.85-3.1,8.19-3.28,12.8-2.1,10.5,2.7,19.5,8.36,28.4,14.3,5.82,3.88,11.6,7.85,17.3,11.8,2.54,1.76,4.63,1.81,7.73,0.449,15.5-6.81,31.4-6.92,47-0.439,4.04,1.68,6.64,1.44,9.96-0.795,10.2-6.88,20.1-14.3,31-20.1,4.9-2.57,9.92-4.73,15.4-5.69,4.13-0.729,7.99-0.098,11.2,2.81,1.9,1.73,1.84,3.16-0.945,3.69-3.1,0.597-5.97,1.66-8.6,3.84,8.85-0.219,17.5,0.071,26.1,6.04z" fill-rule="evenodd" clip-rule="evenodd" fill="#bfcb75"/><path d="m118,51.6h-12.6c2.11,3.4,5.6,4.25,8.65,6.96-5.96,0.644-10.7-2.1-16.3-1.83,3.49,4.23,8.11,6.05,12,9.58-3.25,1.28-5.71-0.753-8.33-0.86-2.07-0.084-5.01-1.92-5.98,0.131-1.22,2.57,2.37,3.42,3.85,5,0.978,1.05,2.22,1.84,3.88,3.18-5.04-0.217-8.95-2.75-13.7-2.32,1.02,4.19,5.21,5.22,7.32,8.59-2.21,0.702-3.89-0.813-5.72-0.9-1.6-0.077-3.45-1.1-4.52,0.783-0.898,1.57,0.431,2.78,1.25,4.02,0.604,0.919,1.82,1.51,1.64,3.01-2.74,0.234-5.11-2.36-8.23-1.14,1.31,3.38,5.02,4.4,7.21,8-5.92,1.28-10.3-0.874-14.3-4.09-3.8-3.06-5.65-7.3-6.38-12.1-1.88-12.3,6.45-28.4,17.6-33.9,9.97-4.93,26.2-1.11,32.6,7.9z" clip-rule="evenodd" fill="#015534"/><path d="m226,71.4c-4.63-0.349-8.53,2.01-13.7,2.09,2.91-2.29,5.15-4.03,7.36-5.8,0.601-0.48,1.57-0.837,1.28-1.84-0.35-1.21-1.44-1.3-2.44-1.12-4.21,0.761-8.42,1.59-13.1,1.64,3.87-2.87,7.75-5.74,12.6-9.31-6.47-0.724-11.4,2.49-17.3,1.7,2.82-2.92,6.99-3.3,9-6.91-4.56-1.7-9.04,0.972-13.8-0.539,6.07-4.69,12.1-8.4,19.3-9.6,7.85-1.31,14.9,0.627,20.8,6.12,7.95,7.47,11.8,16.8,11.6,27.6-0.202,12.1-10.6,21-21.2,17.9,2.2-2.99,6.45-3.96,7.7-7.82-2.8-0.944-4.98,1.59-7.48,0.636,3.14-7.47,3.14-7.47-6.94-6.64,1.06-3.48,5.58-4.2,6.33-8.16z" clip-rule="evenodd" fill="#015534"/><path d="m117,133c-1.54-0.0324-2.56-0.684-3.06-1.09-0.645-0.52-1.34-0.983-1.94-1.54-2.54-2.36-4.76-5.19-3.38-8.69,1.41-3.56,4.93-1.29,7.48-1.65,3.93-0.374,7.51,0.937,11.1,2.19,3.91,1.37,4.19,4.6,3.46,7.14-0.755,2.63-4.28,3.75-6.95,4.37-2.19,0.504-6.7-0.732-6.7-0.732zm12.5-0.757c-1.61,2.19,0.287,4.37-4.14,4.92-3.38,0.422-6.59,0.851-9.66-0.797-0.948-0.51-4.54-0.102-0.979-2.54,0,0,5.03,1.51,7.47,1.27,2.61-0.259,7.3-2.84,7.3-2.84zm-18.7-9.5c-0.079,4.42,2.71,6.77,6.43,8.14,3.56,1.31,7.2,1.42,10.4-1.03,1.5-1.13,1.89-2.58,0.408-4.19-5.87,6.27-11.5,5.18-17.3-2.93zm11.1,1.67c-0.668-1.58-2.16-1.78-3.59-1.97-0.967-0.123-2.38-0.122-2.32,1.08,0.081,1.69,1.62,2.3,3.17,2.48,1.23,0.134,2.24-0.243,2.75-1.59z" fill-rule="evenodd" clip-rule="evenodd" fill="#015534"/><path d="m189,131c-3.48-2.4-3.98-5.28-0.848-7.7,5.68-4.4,12.5-3.64,19.1-3.48,1.53,0.035,2.06,1.64,1.98,3.04-0.27,5.16-3.51,8.17-7.93,9.87-4.31,1.66-8.87,3.1-12.4-1.77,3.76-0.544,7.5,0.99,11.3-0.246,3.96-1.28,6.44-4.39,5.86-8.29-5.05,8.26-11.2,9.41-16.6,3.08-2.79,1.56,0.999,3.82-0.58,5.5zm12.6-7.72c-0.563-1.56-1.93-0.918-2.93-0.885-1.31,0.043-3.02,0.326-2.93,1.97,0.094,1.78,1.81,1.58,3.12,1.43,1.46-0.166,2.37-1.03,2.74-2.52z" clip-rule="evenodd" fill="#015534"/><path d="m109,116c5.87-5.94,11.7-6.15,19.1-0.27-7.01-1.92-12.8-2.31-19.1,0.27z" clip-rule="evenodd" fill="#015534"/><path d="m188,115c5.46-5.12,11.2-5.26,15.9-0.187-5.69-1.09-10.8-1.29-15.9,0.187z" clip-rule="evenodd" fill="#015534"/><path d="m150,96.4c6.47-4.94,13.3-4.82,18.1,0.379-6.42-1.71-12.3-1.54-18.1-0.379z" clip-rule="evenodd" fill="#015534"/><path d="m205,133c-3.96,5.14-8.08,5.56-15,2.1,5.2-1.5,9.78,0.717,15-2.1z" clip-rule="evenodd" fill="#015534"/><path d="m162,280c-2.5,4.38-3.9,3-5.99-0.18-12.2-18.6-24.5-37.3-36.9-55.8-12.7-18.9-25.4-37.9-38-56.8-15.6-23.4-30.9-46.9-45.8-69.1-14.8-22.2-23-34.6-31.2-47-0.702-1.06-2.1-2.12-1.4-3.49,0.717-1.4,2.39-0.783,3.64-0.79,8-0.045,16,0.011,24-0.024,5.23-0.023,13-6.7,14-11.8,0.579-3.02,1.77-5.76,1.1-9.15-0.601-3.06,2.41-5.07,5.06-6.06,5.44-2.03,9.48-5.23,13-10.1,5.2-7.14,13.2-6.94,21-5.13,9.06,2.09,16.9,6.84,24.7,11.8,6.31,4.04,12.5,8.31,18.6,12.6,2.51,1.76,4.66,2.28,7.76,0.999,8.91-3.7,15.2-4.62,24.4-4.19,9.73-0.188,18.4,1.84,24.1,4.38,2.68,1.2,4.59,0.835,6.86-0.753,9.55-6.67,19-13.5,29.3-19,6.97-3.71,14.1-6.77,22.2-6.7,6.86,0.063,12.4,2.7,15.6,8.94,1.54,2.99,1.59,4.27,4.38,5.48,5.07,2.19,9.42,4.02,8.63,11.7,2.23,7.9,7.22,13.8,15.4,18,1.85,3.28,1.71,0.12-1.74,6.47-1.4,3.5,12.6,3.21,1.4,12.9-2.15,1.86,7.23,3.42-2.9,12.6-3.25,2.94,10.2,4.03,6.33,11.8zm-5.36-15.6c1.73,2.58,2.91,3.77,5.2,0.236,6.12-9.44,12.6-18.6,18.9-28,15-22,29.9-44.1,44.9-66.1,9.06-13.4,18.1-26.7,27.1-40.1,0.618-0.919,3.75-1.42,1.15-3.05-1.29-0.803-3.72-1.75-4.98,1.11-6.46,14.6-16.9,26.7-26.1,39.5-7.24,10-15.1,19.6-25.9,26.1-2.81,1.69-4.86,3.92-6.63,6.6-9.45,14.3-19,28.5-28.4,42.9-2.06,3.14-3.26,2.89-5.19-0.075-6.53-10-13.2-20-19.9-29.9-4.46-6.53-8.16-13.7-14.5-18.7-22.3-17.7-37.6-41.1-51.6-65.3-1.75-3.03-3.62-2.58-6.1-2.04,0.052,2.03,1.31,3.25,2.21,4.58,13.1,19.3,26.2,38.5,50,73.7,23.8,35.1,31.8,46.9,39.8,58.8zm110-238c-8.62-5.96-17.3-6.25-26.1-6.03,2.62-2.18,5.5-3.24,8.6-3.84,2.78-0.536,2.85-1.97,0.945-3.69-3.22-2.91-7.08-3.54-11.2-2.81-5.47,0.964-10.5,3.13-15.4,5.69-11,5.74-20.8,13.2-31,20.1-3.32,2.24-5.91,2.47-9.96,0.795-15.6-6.48-31.5-6.37-47,0.439-3.1,1.36-5.19,1.31-7.73-0.449-5.75-3.99-11.5-7.95-17.3-11.8-8.88-5.92-17.9-11.6-28.4-14.3-4.58-1.18-8.92-0.997-12.8,2.1-0.874,0.704-2.09,1.45-1.65,2.8,0.344,1.06,1.58,1.05,2.55,1.25,3,0.629,5.91,1.47,9.67,4.33-10.5-0.802-19.3-0.318-28,5.78,6.87-0.049,12.5-1.55,18.7-0.674-1.21,2.59-3.23,2.35-4.87,2.74-4.22,0.99-8.48,1.89-12.2,4.18-1.02,0.626-2.96,0.865-2.51,2.55,0.439,1.63,2.19,1.24,3.46,1.08,3.46-0.454,6.79-0.383,10.7,1.84-8.85,2.52-17.5,3.78-24.6,11.5,4.88-0.317,8.34-0.677,11.8-0.724,2.8-0.037,7.25-1.55,7.78,1.68,0.487,2.92-4.18,3.51-6.9,4.42-4.42,1.47-8.95,2.59-13.4,3.9-0.786,0.23-1.72,0.643-1.68,1.59,0.057,1.36,1.27,1.41,2.23,1.35,4.32-0.279,8.63-0.74,13-0.932,1.71-0.076,4.29-0.809,4.84,1.32,0.677,2.6-2.18,2.87-3.88,3.66-4.52,2.1-9.5,3.16-13.7,5.9-0.657,0.425-1.58,0.796-1.33,1.84,0.252,1.03,1.22,1.02,2.02,1.06,3.16,0.143,6.33,0.134,9.48,0.385,1.52,0.121,3.77-0.598,4.2,1.62,0.363,1.89-1.5,2.8-2.91,3.65-3.15,1.9-6.9,2.79-9.92,5.61,3.68,1.84,7.42,1.43,10.9,2.36,1.88,0.508,4.25,0.521,5,2.74,0.756,2.25-1.11,3.6-2.44,5.08-0.833,0.925-2.19,1.53-2.2,3.19,2.12,0.942,4.26,0.057,6.35,0.181,1.77,0.104,4.05-0.714,4.92,1.34,0.784,1.86-0.934,3.34-1.98,4.83-1.18,1.67-3.13,2.89-3.44,5.76,2.78-0.845,5.16-1.57,7.76-2.36,0.02,3.73-2.11,6.82-0.678,10.6,0.727-0.784,1.15-1.21,1.54-1.66,1.24-1.48,2.15-3.97,4.47-3.28,2.06,0.608,2.38,3.1,2.7,5.02,0.76,4.51,2.33,8.69,4.75,12.5,9.78,15.5,20.6,30.3,32.5,44.2,7.92,9.24,18.2,15.6,30.1,18.8,1.25,0.336,3.74,2.16,3.68-1.01-0.156-9.62,1.32-19.3-0.948-28.8-2.27-9.48-4.04-18.9-2-28.6,1.57-7.49,6.8-11.2,15.5-11.1,8.82,0.03,13.9,3.63,15.6,11,1.54,6.79,1.74,13.8-0.257,20.3-3.56,11.6-2.33,23.4-2.5,35.2-0.055,3.67,1.04,4.6,4.72,3.54,12.2-3.52,22.6-9.85,31-19.2,9.48-10.5,17.4-22.3,25.6-33.8,4.47-6.18,9.11-12.4,11-20,2.47-9.84,2.45-9.85,9.75-3.25,0.771-3.72-1.29-6.92-1.1-10.2,2.86-0.273,4.7,2.33,7.58,1.7-0.638-3.23-3.53-4.82-4.83-7.41-0.494-0.98-1.74-1.81-0.67-3.06,0.841-0.992,1.98-1.12,3.19-0.741,2.85,0.893,5.61,1.11,8.46-0.623-0.59-0.846-0.848-1.26-1.15-1.64-1.58-1.99-4.8-3.45-3.5-6.52,1.18-2.79,4.51-2.29,7.01-2.98,3.03-0.847,6.44,0.039,10-2.04-4.31-2.14-8.04-3.9-11.7-5.86-1.25-0.682-2.88-1.68-2.54-3.38,0.394-1.96,2.37-1.36,3.77-1.56,4.02-0.553,8.19,0.252,12.6-1.05-0.978-2-2.47-2.77-3.9-3.4-4.43-1.92-8.95-3.63-13.4-5.53-1.17-0.501-2.71-1.17-2.26-2.83,0.428-1.57,2.05-1.59,3.35-1.5,3.99,0.273,7.96,0.693,11.9,1.05,1.9,0.168,3.92,0.681,5.44-1.65-2.55-1.74-5.3-2.27-7.98-3.03-4.48-1.27-9.12-2.07-13.2-4.44-0.961-0.557-2.34-0.983-1.83-2.52,0.355-1.07,1.49-1.32,2.46-1.4,1.49-0.136,3-0.175,4.48-0.066,3.89,0.284,7.78,1.02,12.7,0.242-6.69-6.91-15.2-8.08-23.6-10.7,4.31-3.53,9.14-1.26,13.1-3.32-5.02-6.28-13.3-4.7-18.9-8.7,5.64-1.5,11,0.342,17.8-0.098zm-115,190c1.51-0.727,0.429-2.62,2.04-2.92,1.65,0.783,0.872,3,2.18,3.92,1.59-0.513,1.5-4.7,2.57-2.93,3.18,5.28,2.56-2.4,4.18-0.879,1.38,0.801,0.108,2.62,1.43,3.56,0.412-0.93,1.02-1.8,1.18-2.74,2.04-12.2,0.877-24.6,0.899-36.9,0.002-1.35-0.665-2.14-2.09-2.26-3.13-0.276-6.16-1.01-9.41-0.56-3.72,0.52-4.94,2.06-4.81,5.83,0.297,8.48,0.124,17,0.151,25.5,0.012,3.48-0.272,7.01,1.68,10.4zm-117-163c-6.86,0-12.5,0.014-18.1-0.007-1.82-0.007-3.24,0.267-1.76,2.47,5.75,8.55,11.5,17.1,17.3,25.6,0.564,0.828,1.4,1.7,2.41,0.677,1.07-1.08-0.105-1.74-0.756-2.41-2.82-2.9-3.2-6.08-1.07-9.51,0.625-1.01,1.47-2.02,0.402-3.12-4.51-4.61-2.99-8.9,1.56-13.7zm116,79c5.22-0.959,10.4-1.03,16.7,0.7-6.57-5-11.1-5.04-16.7-0.7zm125-36.5c0.428-1.2-0.244-1.73-1.15-1.65-1.17,0.104-3.04-0.467-2.98,1.56,0.024,0.943-0.491,2.74,1.1,2.89,1.76,0.161,2.1-1.82,3.03-2.8zm-111,73.5c-1.17,0.22-2.36,0.608-2.4,1.99-0.029,0.894,0.794,1.42,1.73,1.24,1.12-0.211,2.4-0.445,2.4-1.94-0.004-0.953-0.813-1.3-1.73-1.29z" fill-rule="evenodd" clip-rule="evenodd" fill="#015534"/><path d="m131,249c-6.7,0.114-9.31-3.37-11.9-7.51-37.4-59-74.9-118-112-177-0.789-1.24-1.53-2.52-1.8-4.1,42.5,62.1,83.5,126,126,189z" fill-rule="evenodd" clip-rule="evenodd" fill="#015534"/><path d="m152,216c-1.95-3.37-1.67-6.9-1.68-10.4-0.027-8.49,0.146-17-0.151-25.5-0.132-3.77,1.09-5.31,4.81-5.83,3.25-0.454,6.28,0.283,9.41,0.56,1.42,0.126,2.09,0.911,2.09,2.26-0.022,12.3,1.14,24.6-0.899,36.9-0.157,0.941-0.766,1.81-1.18,2.74-1.32-0.94-0.047-2.76-1.43-3.55-1.62-1.52-1,6.15-4.18,0.873-1.07-1.77-0.978,2.42-2.57,2.93-1.31-0.917-0.53-3.14-2.18-3.92-1.61,0.298-0.532,2.19-2.04,2.92z" fill-rule="evenodd" clip-rule="evenodd" fill="#bfcb75"/><path d="m151,132c5.64-4.34,10.2-4.3,16.7,0.7-6.38-1.73-11.5-1.66-16.7-0.7z" fill-rule="evenodd" clip-rule="evenodd" fill="#bfcb75"/><path d="m165,169c0.91-0.006,1.72,0.337,1.72,1.29,0.005,1.49-1.28,1.73-2.4,1.94-0.935,0.177-1.76-0.351-1.73-1.24,0.045-1.38,1.23-1.77,2.4-1.98z" fill-rule="evenodd" clip-rule="evenodd" fill="#bfcb75"/><path d="m187,249c6.7,0.114,9.31-3.37,11.9-7.51,37.4-59,74.9-118,112-177,0.789-1.24,1.53-2.52,1.8-4.1-43.2,61.8-84.1,125-126,189z" fill-rule="evenodd" clip-rule="evenodd" fill="#bfcb75"/></svg>